<svg xmlns="http://www.w3.org/2000/svg" version="1.1" xmlns:xlink="http://www.w3.org/1999/xlink" xmlns:svgjs="http://svgjs.com/svgjs" width="1440" height="692" preserveAspectRatio="none" viewBox="0 0 1440 692"><g mask="url(&quot;#SvgjsMask1006&quot;)" fill="none"><path d="M-61.21 500.22L-61.21 500.22" stroke="rgba(146, 146, 146, 0.61)" stroke-width="1.5"></path><path d="M-61.21 500.22L37.63 499.8" stroke="rgba(146, 146, 146, 0.61)" stroke-width="1.5"></path><path d="M-61.21 500.22L-70.96 698.32" stroke="rgba(146, 146, 146, 0.61)" stroke-width="1.5"></path><path d="M-61.21 500.22L47.32 673.7" stroke="rgba(146, 146, 146, 0.61)" stroke-width="1.5"></path><path d="M-61.21 500.22L234.74 489.88" stroke="rgba(146, 146, 146, 0.61)" stroke-width="1.5"></path><path d="M-70.96 698.32L-70.96 698.32" stroke="rgba(146, 146, 146, 0.61)" stroke-width="1.5"></path><path d="M-70.96 698.32L47.32 673.7" stroke="rgba(146, 146, 146, 0.61)" stroke-width="1.5"></path><path d="M-70.96 698.32L-64.46 824.48" stroke="rgba(146, 146, 146, 0.61)" stroke-width="1.5"></path><path d="M-70.96 698.32L65.84 855.7" stroke="rgba(146, 146, 146, 0.61)" stroke-width="1.5"></path><path d="M-64.46 824.48L-64.46 824.48" stroke="rgba(146, 146, 146, 0.61)" stroke-width="1.5"></path><path d="M-64.46 824.48L65.84 855.7" stroke="rgba(146, 146, 146, 0.61)" stroke-width="1.5"></path><path d="M37.63 499.8L37.63 499.8" stroke="rgba(146, 146, 146, 0.61)" stroke-width="1.5"></path><path d="M37.63 499.8L47.32 673.7" stroke="rgba(146, 146, 146, 0.61)" stroke-width="1.5"></path><path d="M47.32 673.7L47.32 673.7" stroke="rgba(146, 146, 146, 0.61)" stroke-width="1.5"></path><path d="M65.84 855.7L65.84 855.7" stroke="rgba(146, 146, 146, 0.61)" stroke-width="1.5"></path><path d="M65.84 855.7L217.74 832.91" stroke="rgba(146, 146, 146, 0.61)" stroke-width="1.5"></path><path d="M65.84 855.7L47.32 673.7" stroke="rgba(146, 146, 146, 0.61)" stroke-width="1.5"></path><path d="M65.84 855.7L357.46 821.3" stroke="rgba(146, 146, 146, 0.61)" stroke-width="1.5"></path><path d="M234.74 489.88L234.74 489.88" stroke="rgba(146, 146, 146, 0.61)" stroke-width="1.5"></path><path d="M234.74 489.88L37.63 499.8" stroke="rgba(146, 146, 146, 0.61)" stroke-width="1.5"></path><path d="M234.74 489.88L403.12 371.45" stroke="rgba(146, 146, 146, 0.61)" stroke-width="1.5"></path><path d="M234.74 489.88L389.86 647.55" stroke="rgba(146, 146, 146, 0.61)" stroke-width="1.5"></path><path d="M234.74 489.88L47.32 673.7" stroke="rgba(146, 146, 146, 0.61)" stroke-width="1.5"></path><path d="M234.74 489.88L506.41 541.26" stroke="rgba(146, 146, 146, 0.61)" stroke-width="1.5"></path><path d="M217.74 832.91L217.74 832.91" stroke="rgba(146, 146, 146, 0.61)" stroke-width="1.5"></path><path d="M217.74 832.91L357.46 821.3" stroke="rgba(146, 146, 146, 0.61)" stroke-width="1.5"></path><path d="M217.74 832.91L47.32 673.7" stroke="rgba(146, 146, 146, 0.61)" stroke-width="1.5"></path><path d="M217.74 832.91L389.86 647.55" stroke="rgba(146, 146, 146, 0.61)" stroke-width="1.5"></path><path d="M403.12 371.45L403.12 371.45" stroke="rgba(146, 146, 146, 0.61)" stroke-width="1.5"></path><path d="M403.12 371.45L510.67 343.66" stroke="rgba(146, 146, 146, 0.61)" stroke-width="1.5"></path><path d="M403.12 371.45L506.41 541.26" stroke="rgba(146, 146, 146, 0.61)" stroke-width="1.5"></path><path d="M389.86 647.55L389.86 647.55" stroke="rgba(146, 146, 146, 0.61)" stroke-width="1.5"></path><path d="M389.86 647.55L537.19 643.6" stroke="rgba(146, 146, 146, 0.61)" stroke-width="1.5"></path><path d="M389.86 647.55L506.41 541.26" stroke="rgba(146, 146, 146, 0.61)" stroke-width="1.5"></path><path d="M389.86 647.55L357.46 821.3" stroke="rgba(146, 146, 146, 0.61)" stroke-width="1.5"></path><path d="M389.86 647.55L513.41 823.92" stroke="rgba(146, 146, 146, 0.61)" stroke-width="1.5"></path><path d="M357.46 821.3L357.46 821.3" stroke="rgba(146, 146, 146, 0.61)" stroke-width="1.5"></path><path d="M357.46 821.3L513.41 823.92" stroke="rgba(146, 146, 146, 0.61)" stroke-width="1.5"></path><path d="M510.67 343.66L510.67 343.66" stroke="rgba(146, 146, 146, 0.61)" stroke-width="1.5"></path><path d="M510.67 343.66L671.73 363.32" stroke="rgba(146, 146, 146, 0.61)" stroke-width="1.5"></path><path d="M506.41 541.26L506.41 541.26" stroke="rgba(146, 146, 146, 0.61)" stroke-width="1.5"></path><path d="M506.41 541.26L537.19 643.6" stroke="rgba(146, 146, 146, 0.61)" stroke-width="1.5"></path><path d="M506.41 541.26L699.86 520.28" stroke="rgba(146, 146, 146, 0.61)" stroke-width="1.5"></path><path d="M506.41 541.26L510.67 343.66" stroke="rgba(146, 146, 146, 0.61)" stroke-width="1.5"></path><path d="M537.19 643.6L537.19 643.6" stroke="rgba(146, 146, 146, 0.61)" stroke-width="1.5"></path><path d="M513.41 823.92L513.41 823.92" stroke="rgba(146, 146, 146, 0.61)" stroke-width="1.5"></path><path d="M513.41 823.92L692.07 792.12" stroke="rgba(146, 146, 146, 0.61)" stroke-width="1.5"></path><path d="M671.73 363.32L671.73 363.32" stroke="rgba(146, 146, 146, 0.61)" stroke-width="1.5"></path><path d="M671.73 363.32L807.93 362.27" stroke="rgba(146, 146, 146, 0.61)" stroke-width="1.5"></path><path d="M671.73 363.32L699.86 520.28" stroke="rgba(146, 146, 146, 0.61)" stroke-width="1.5"></path><path d="M671.73 363.32L836.28 231.15" stroke="rgba(146, 146, 146, 0.61)" stroke-width="1.5"></path><path d="M671.73 363.32L809.23 544.42" stroke="rgba(146, 146, 146, 0.61)" stroke-width="1.5"></path><path d="M671.73 363.32L506.41 541.26" stroke="rgba(146, 146, 146, 0.61)" stroke-width="1.5"></path><path d="M699.86 520.28L699.86 520.28" stroke="rgba(146, 146, 146, 0.61)" stroke-width="1.5"></path><path d="M699.86 520.28L809.23 544.42" stroke="rgba(146, 146, 146, 0.61)" stroke-width="1.5"></path><path d="M692.07 792.12L692.07 792.12" stroke="rgba(146, 146, 146, 0.61)" stroke-width="1.5"></path><path d="M692.07 792.12L820.31 673.71" stroke="rgba(146, 146, 146, 0.61)" stroke-width="1.5"></path><path d="M692.07 792.12L862.05 833.68" stroke="rgba(146, 146, 146, 0.61)" stroke-width="1.5"></path><path d="M836.28 231.15L836.28 231.15" stroke="rgba(146, 146, 146, 0.61)" stroke-width="1.5"></path><path d="M836.28 231.15L807.93 362.27" stroke="rgba(146, 146, 146, 0.61)" stroke-width="1.5"></path><path d="M836.28 231.15L990.11 231.15" stroke="rgba(146, 146, 146, 0.61)" stroke-width="1.5"></path><path d="M836.28 231.15L951.74 372.66" stroke="rgba(146, 146, 146, 0.61)" stroke-width="1.5"></path><path d="M836.28 231.15L969.68 98.98" stroke="rgba(146, 146, 146, 0.61)" stroke-width="1.5"></path><path d="M836.28 231.15L1123.74 212.75" stroke="rgba(146, 146, 146, 0.61)" stroke-width="1.5"></path><path d="M807.93 362.27L807.93 362.27" stroke="rgba(146, 146, 146, 0.61)" stroke-width="1.5"></path><path d="M807.93 362.27L951.74 372.66" stroke="rgba(146, 146, 146, 0.61)" stroke-width="1.5"></path><path d="M807.93 362.27L809.23 544.42" stroke="rgba(146, 146, 146, 0.61)" stroke-width="1.5"></path><path d="M807.93 362.27L699.86 520.28" stroke="rgba(146, 146, 146, 0.61)" stroke-width="1.5"></path><path d="M809.23 544.42L809.23 544.42" stroke="rgba(146, 146, 146, 0.61)" stroke-width="1.5"></path><path d="M820.31 673.71L820.31 673.71" stroke="rgba(146, 146, 146, 0.61)" stroke-width="1.5"></path><path d="M820.31 673.71L809.23 544.42" stroke="rgba(146, 146, 146, 0.61)" stroke-width="1.5"></path><path d="M820.31 673.71L862.05 833.68" stroke="rgba(146, 146, 146, 0.61)" stroke-width="1.5"></path><path d="M820.31 673.71L991.32 656.55" stroke="rgba(146, 146, 146, 0.61)" stroke-width="1.5"></path><path d="M862.05 833.68L862.05 833.68" stroke="rgba(146, 146, 146, 0.61)" stroke-width="1.5"></path><path d="M862.05 833.68L999.02 851.25" stroke="rgba(146, 146, 146, 0.61)" stroke-width="1.5"></path><path d="M862.05 833.68L991.32 656.55" stroke="rgba(146, 146, 146, 0.61)" stroke-width="1.5"></path><path d="M862.05 833.68L1088.71 854.79" stroke="rgba(146, 146, 146, 0.61)" stroke-width="1.5"></path><path d="M862.05 833.68L809.23 544.42" stroke="rgba(146, 146, 146, 0.61)" stroke-width="1.5"></path><path d="M984.17 -40.79L984.17 -40.79" stroke="rgba(146, 146, 146, 0.61)" stroke-width="1.5"></path><path d="M984.17 -40.79L1092.79 -90.71" stroke="rgba(146, 146, 146, 0.61)" stroke-width="1.5"></path><path d="M984.17 -40.79L969.68 98.98" stroke="rgba(146, 146, 146, 0.61)" stroke-width="1.5"></path><path d="M984.17 -40.79L1117.8 100.33" stroke="rgba(146, 146, 146, 0.61)" stroke-width="1.5"></path><path d="M984.17 -40.79L990.11 231.15" stroke="rgba(146, 146, 146, 0.61)" stroke-width="1.5"></path><path d="M984.17 -40.79L1123.74 212.75" stroke="rgba(146, 146, 146, 0.61)" stroke-width="1.5"></path><path d="M984.17 -40.79L836.28 231.15" stroke="rgba(146, 146, 146, 0.61)" stroke-width="1.5"></path><path d="M969.68 98.98L969.68 98.98" stroke="rgba(146, 146, 146, 0.61)" stroke-width="1.5"></path><path d="M969.68 98.98L990.11 231.15" stroke="rgba(146, 146, 146, 0.61)" stroke-width="1.5"></path><path d="M969.68 98.98L1117.8 100.33" stroke="rgba(146, 146, 146, 0.61)" stroke-width="1.5"></path><path d="M969.68 98.98L1123.74 212.75" stroke="rgba(146, 146, 146, 0.61)" stroke-width="1.5"></path><path d="M990.11 231.15L990.11 231.15" stroke="rgba(146, 146, 146, 0.61)" stroke-width="1.5"></path><path d="M990.11 231.15L1123.74 212.75" stroke="rgba(146, 146, 146, 0.61)" stroke-width="1.5"></path><path d="M990.11 231.15L951.74 372.66" stroke="rgba(146, 146, 146, 0.61)" stroke-width="1.5"></path><path d="M951.74 372.66L951.74 372.66" stroke="rgba(146, 146, 146, 0.61)" stroke-width="1.5"></path><path d="M951.74 372.66L979.52 529.04" stroke="rgba(146, 146, 146, 0.61)" stroke-width="1.5"></path><path d="M979.52 529.04L979.52 529.04" stroke="rgba(146, 146, 146, 0.61)" stroke-width="1.5"></path><path d="M979.52 529.04L1102.43 517.81" stroke="rgba(146, 146, 146, 0.61)" stroke-width="1.5"></path><path d="M979.52 529.04L991.32 656.55" stroke="rgba(146, 146, 146, 0.61)" stroke-width="1.5"></path><path d="M979.52 529.04L1095.98 637.8" stroke="rgba(146, 146, 146, 0.61)" stroke-width="1.5"></path><path d="M979.52 529.04L809.23 544.42" stroke="rgba(146, 146, 146, 0.61)" stroke-width="1.5"></path><path d="M991.32 656.55L991.32 656.55" stroke="rgba(146, 146, 146, 0.61)" stroke-width="1.5"></path><path d="M991.32 656.55L1095.98 637.8" stroke="rgba(146, 146, 146, 0.61)" stroke-width="1.5"></path><path d="M999.02 851.25L999.02 851.25" stroke="rgba(146, 146, 146, 0.61)" stroke-width="1.5"></path><path d="M999.02 851.25L1088.71 854.79" stroke="rgba(146, 146, 146, 0.61)" stroke-width="1.5"></path><path d="M1092.79 -90.71L1092.79 -90.71" stroke="rgba(146, 146, 146, 0.61)" stroke-width="1.5"></path><path d="M1092.79 -90.71L1117.8 100.33" stroke="rgba(146, 146, 146, 0.61)" stroke-width="1.5"></path><path d="M1092.79 -90.71L969.68 98.98" stroke="rgba(146, 146, 146, 0.61)" stroke-width="1.5"></path><path d="M1092.79 -90.71L1290.6 102.21" stroke="rgba(146, 146, 146, 0.61)" stroke-width="1.5"></path><path d="M1092.79 -90.71L1123.74 212.75" stroke="rgba(146, 146, 146, 0.61)" stroke-width="1.5"></path><path d="M1117.8 100.33L1117.8 100.33" stroke="rgba(146, 146, 146, 0.61)" stroke-width="1.5"></path><path d="M1117.8 100.33L1123.74 212.75" stroke="rgba(146, 146, 146, 0.61)" stroke-width="1.5"></path><path d="M1117.8 100.33L1290.6 102.21" stroke="rgba(146, 146, 146, 0.61)" stroke-width="1.5"></path><path d="M1123.74 212.75L1123.74 212.75" stroke="rgba(146, 146, 146, 0.61)" stroke-width="1.5"></path><path d="M1123.74 212.75L1134.55 363.35" stroke="rgba(146, 146, 146, 0.61)" stroke-width="1.5"></path><path d="M1123.74 212.75L1290.6 102.21" stroke="rgba(146, 146, 146, 0.61)" stroke-width="1.5"></path><path d="M1134.55 363.35L1134.55 363.35" stroke="rgba(146, 146, 146, 0.61)" stroke-width="1.5"></path><path d="M1134.55 363.35L1292.23 362.19" stroke="rgba(146, 146, 146, 0.61)" stroke-width="1.5"></path><path d="M1102.43 517.81L1102.43 517.81" stroke="rgba(146, 146, 146, 0.61)" stroke-width="1.5"></path><path d="M1102.43 517.81L1095.98 637.8" stroke="rgba(146, 146, 146, 0.61)" stroke-width="1.5"></path><path d="M1095.98 637.8L1095.98 637.8" stroke="rgba(146, 146, 146, 0.61)" stroke-width="1.5"></path><path d="M1088.71 854.79L1088.71 854.79" stroke="rgba(146, 146, 146, 0.61)" stroke-width="1.5"></path><path d="M1088.71 854.79L1095.98 637.8" stroke="rgba(146, 146, 146, 0.61)" stroke-width="1.5"></path><path d="M1088.71 854.79L991.32 656.55" stroke="rgba(146, 146, 146, 0.61)" stroke-width="1.5"></path><path d="M1290.6 102.21L1290.6 102.21" stroke="rgba(146, 146, 146, 0.61)" stroke-width="1.5"></path><path d="M1290.6 102.21L1417.05 48.21" stroke="rgba(146, 146, 146, 0.61)" stroke-width="1.5"></path><path d="M1290.6 102.21L1412.21 233.39" stroke="rgba(146, 146, 146, 0.61)" stroke-width="1.5"></path><path d="M1292.23 362.19L1292.23 362.19" stroke="rgba(146, 146, 146, 0.61)" stroke-width="1.5"></path><path d="M1292.23 362.19L1450.74 338.97" stroke="rgba(146, 146, 146, 0.61)" stroke-width="1.5"></path><path d="M1292.23 362.19L1289.05 527.13" stroke="rgba(146, 146, 146, 0.61)" stroke-width="1.5"></path><path d="M1292.23 362.19L1412.21 233.39" stroke="rgba(146, 146, 146, 0.61)" stroke-width="1.5"></path><path d="M1292.23 362.19L1427.49 527.03" stroke="rgba(146, 146, 146, 0.61)" stroke-width="1.5"></path><path d="M1292.23 362.19L1123.74 212.75" stroke="rgba(146, 146, 146, 0.61)" stroke-width="1.5"></path><path d="M1289.05 527.13L1289.05 527.13" stroke="rgba(146, 146, 146, 0.61)" stroke-width="1.5"></path><path d="M1289.05 527.13L1427.49 527.03" stroke="rgba(146, 146, 146, 0.61)" stroke-width="1.5"></path><path d="M1289.05 527.13L1283.22 682.5" stroke="rgba(146, 146, 146, 0.61)" stroke-width="1.5"></path><path d="M1283.22 682.5L1283.22 682.5" stroke="rgba(146, 146, 146, 0.61)" stroke-width="1.5"></path><path d="M1283.22 682.5L1095.98 637.8" stroke="rgba(146, 146, 146, 0.61)" stroke-width="1.5"></path><path d="M1283.22 682.5L1427.49 527.03" stroke="rgba(146, 146, 146, 0.61)" stroke-width="1.5"></path><path d="M1412.67 -108.88L1412.67 -108.88" stroke="rgba(146, 146, 146, 0.61)" stroke-width="1.5"></path><path d="M1412.67 -108.88L1417.05 48.21" stroke="rgba(146, 146, 146, 0.61)" stroke-width="1.5"></path><path d="M1412.67 -108.88L1596.2 -97.99" stroke="rgba(146, 146, 146, 0.61)" stroke-width="1.5"></path><path d="M1412.67 -108.88L1290.6 102.21" stroke="rgba(146, 146, 146, 0.61)" stroke-width="1.5"></path><path d="M1417.05 48.21L1417.05 48.21" stroke="rgba(146, 146, 146, 0.61)" stroke-width="1.5"></path><path d="M1417.05 48.21L1412.21 233.39" stroke="rgba(146, 146, 146, 0.61)" stroke-width="1.5"></path><path d="M1417.05 48.21L1599.71 112.28" stroke="rgba(146, 146, 146, 0.61)" stroke-width="1.5"></path><path d="M1417.05 48.21L1596.2 -97.99" stroke="rgba(146, 146, 146, 0.61)" stroke-width="1.5"></path><path d="M1412.21 233.39L1412.21 233.39" stroke="rgba(146, 146, 146, 0.61)" stroke-width="1.5"></path><path d="M1412.21 233.39L1450.74 338.97" stroke="rgba(146, 146, 146, 0.61)" stroke-width="1.5"></path><path d="M1412.21 233.39L1580.04 237.35" stroke="rgba(146, 146, 146, 0.61)" stroke-width="1.5"></path><path d="M1450.74 338.97L1450.74 338.97" stroke="rgba(146, 146, 146, 0.61)" stroke-width="1.5"></path><path d="M1450.74 338.97L1572.35 393.33" stroke="rgba(146, 146, 146, 0.61)" stroke-width="1.5"></path><path d="M1427.49 527.03L1427.49 527.03" stroke="rgba(146, 146, 146, 0.61)" stroke-width="1.5"></path><path d="M1427.49 527.03L1593.04 554.08" stroke="rgba(146, 146, 146, 0.61)" stroke-width="1.5"></path><path d="M1427.49 527.03L1450.74 338.97" stroke="rgba(146, 146, 146, 0.61)" stroke-width="1.5"></path><path d="M1427.49 527.03L1558.97 668.81" stroke="rgba(146, 146, 146, 0.61)" stroke-width="1.5"></path><path d="M1421.08 853.94L1421.08 853.94" stroke="rgba(146, 146, 146, 0.61)" stroke-width="1.5"></path><path d="M1421.08 853.94L1591.35 852.53" stroke="rgba(146, 146, 146, 0.61)" stroke-width="1.5"></path><path d="M1421.08 853.94L1283.22 682.5" stroke="rgba(146, 146, 146, 0.61)" stroke-width="1.5"></path><path d="M1421.08 853.94L1558.97 668.81" stroke="rgba(146, 146, 146, 0.61)" stroke-width="1.5"></path><path d="M1421.08 853.94L1427.49 527.03" stroke="rgba(146, 146, 146, 0.61)" stroke-width="1.5"></path><path d="M1421.08 853.94L1088.71 854.79" stroke="rgba(146, 146, 146, 0.61)" stroke-width="1.5"></path><path d="M1421.08 853.94L1593.04 554.08" stroke="rgba(146, 146, 146, 0.61)" stroke-width="1.5"></path><path d="M1596.2 -97.99L1596.2 -97.99" stroke="rgba(146, 146, 146, 0.61)" stroke-width="1.5"></path><path d="M1596.2 -97.99L1599.71 112.28" stroke="rgba(146, 146, 146, 0.61)" stroke-width="1.5"></path><path d="M1596.2 -97.99L1580.04 237.35" stroke="rgba(146, 146, 146, 0.61)" stroke-width="1.5"></path><path d="M1596.2 -97.99L1290.6 102.21" stroke="rgba(146, 146, 146, 0.61)" stroke-width="1.5"></path><path d="M1596.2 -97.99L1412.21 233.39" stroke="rgba(146, 146, 146, 0.61)" stroke-width="1.5"></path><path d="M1599.71 112.28L1599.71 112.28" stroke="rgba(146, 146, 146, 0.61)" stroke-width="1.5"></path><path d="M1599.71 112.28L1580.04 237.35" stroke="rgba(146, 146, 146, 0.61)" stroke-width="1.5"></path><path d="M1580.04 237.35L1580.04 237.35" stroke="rgba(146, 146, 146, 0.61)" stroke-width="1.5"></path><path d="M1580.04 237.35L1572.35 393.33" stroke="rgba(146, 146, 146, 0.61)" stroke-width="1.5"></path><path d="M1580.04 237.35L1450.74 338.97" stroke="rgba(146, 146, 146, 0.61)" stroke-width="1.5"></path><path d="M1580.04 237.35L1417.05 48.21" stroke="rgba(146, 146, 146, 0.61)" stroke-width="1.5"></path><path d="M1572.35 393.33L1572.35 393.33" stroke="rgba(146, 146, 146, 0.61)" stroke-width="1.5"></path><path d="M1593.04 554.08L1593.04 554.08" stroke="rgba(146, 146, 146, 0.61)" stroke-width="1.5"></path><path d="M1593.04 554.08L1558.97 668.81" stroke="rgba(146, 146, 146, 0.61)" stroke-width="1.5"></path><path d="M1593.04 554.08L1572.35 393.33" stroke="rgba(146, 146, 146, 0.61)" stroke-width="1.5"></path><path d="M1593.04 554.08L1450.74 338.97" stroke="rgba(146, 146, 146, 0.61)" stroke-width="1.5"></path><path d="M1593.04 554.08L1591.35 852.53" stroke="rgba(146, 146, 146, 0.61)" stroke-width="1.5"></path><path d="M1593.04 554.08L1289.05 527.13" stroke="rgba(146, 146, 146, 0.61)" stroke-width="1.5"></path><path d="M1558.97 668.81L1558.97 668.81" stroke="rgba(146, 146, 146, 0.61)" stroke-width="1.5"></path><path d="M1558.97 668.81L1591.35 852.53" stroke="rgba(146, 146, 146, 0.61)" stroke-width="1.5"></path><path d="M1591.35 852.53L1591.35 852.53" stroke="rgba(146, 146, 146, 0.61)" stroke-width="1.5"></path><circle r="5" cx="-61.21" cy="500.22" fill="rgba(146, 146, 146, 0.61)"></circle><circle r="5" cx="-70.96" cy="698.32" fill="rgba(146, 146, 146, 0.61)"></circle><circle r="5" cx="-64.46" cy="824.48" fill="rgba(146, 146, 146, 0.61)"></circle><circle r="5" cx="37.63" cy="499.8" fill="rgba(146, 146, 146, 0.61)"></circle><circle r="5" cx="47.32" cy="673.7" fill="rgba(146, 146, 146, 0.61)"></circle><circle r="5" cx="65.84" cy="855.7" fill="rgba(146, 146, 146, 0.61)"></circle><circle r="5" cx="234.74" cy="489.88" fill="rgba(146, 146, 146, 0.61)"></circle><circle r="5" cx="217.74" cy="832.91" fill="rgba(146, 146, 146, 0.61)"></circle><circle r="5" cx="403.12" cy="371.45" fill="rgba(146, 146, 146, 0.61)"></circle><circle r="5" cx="389.86" cy="647.55" fill="rgba(146, 146, 146, 0.61)"></circle><circle r="5" cx="357.46" cy="821.3" fill="rgba(146, 146, 146, 0.61)"></circle><circle r="5" cx="510.67" cy="343.66" fill="rgba(146, 146, 146, 0.61)"></circle><circle r="5" cx="506.41" cy="541.26" fill="rgba(146, 146, 146, 0.61)"></circle><circle r="5" cx="537.19" cy="643.6" fill="rgba(146, 146, 146, 0.61)"></circle><circle r="5" cx="513.41" cy="823.92" fill="rgba(146, 146, 146, 0.61)"></circle><circle r="5" cx="671.73" cy="363.32" fill="rgba(146, 146, 146, 0.61)"></circle><circle r="5" cx="699.86" cy="520.28" fill="rgba(146, 146, 146, 0.61)"></circle><circle r="5" cx="692.07" cy="792.12" fill="rgba(146, 146, 146, 0.61)"></circle><circle r="5" cx="836.28" cy="231.15" fill="rgba(146, 146, 146, 0.61)"></circle><circle r="5" cx="807.93" cy="362.27" fill="rgba(146, 146, 146, 0.61)"></circle><circle r="5" cx="809.23" cy="544.42" fill="rgba(146, 146, 146, 0.61)"></circle><circle r="5" cx="820.31" cy="673.71" fill="rgba(146, 146, 146, 0.61)"></circle><circle r="5" cx="862.05" cy="833.68" fill="rgba(146, 146, 146, 0.61)"></circle><circle r="5" cx="984.17" cy="-40.79" fill="rgba(146, 146, 146, 0.61)"></circle><circle r="5" cx="969.68" cy="98.98" fill="rgba(146, 146, 146, 0.61)"></circle><circle r="5" cx="990.11" cy="231.15" fill="rgba(146, 146, 146, 0.61)"></circle><circle r="5" cx="951.74" cy="372.66" fill="rgba(146, 146, 146, 0.61)"></circle><circle r="5" cx="979.52" cy="529.04" fill="rgba(146, 146, 146, 0.61)"></circle><circle r="5" cx="991.32" cy="656.55" fill="rgba(146, 146, 146, 0.61)"></circle><circle r="5" cx="999.02" cy="851.25" fill="rgba(146, 146, 146, 0.61)"></circle><circle r="5" cx="1092.79" cy="-90.71" fill="rgba(146, 146, 146, 0.61)"></circle><circle r="5" cx="1117.8" cy="100.33" fill="rgba(146, 146, 146, 0.61)"></circle><circle r="5" cx="1123.74" cy="212.75" fill="rgba(146, 146, 146, 0.61)"></circle><circle r="5" cx="1134.55" cy="363.35" fill="rgba(146, 146, 146, 0.61)"></circle><circle r="5" cx="1102.43" cy="517.81" fill="rgba(146, 146, 146, 0.61)"></circle><circle r="5" cx="1095.98" cy="637.8" fill="rgba(146, 146, 146, 0.61)"></circle><circle r="5" cx="1088.71" cy="854.79" fill="rgba(146, 146, 146, 0.61)"></circle><circle r="5" cx="1290.6" cy="102.21" fill="rgba(146, 146, 146, 0.61)"></circle><circle r="5" cx="1292.23" cy="362.19" fill="rgba(146, 146, 146, 0.61)"></circle><circle r="5" cx="1289.05" cy="527.13" fill="rgba(146, 146, 146, 0.61)"></circle><circle r="5" cx="1283.22" cy="682.5" fill="rgba(146, 146, 146, 0.61)"></circle><circle r="5" cx="1412.67" cy="-108.88" fill="rgba(146, 146, 146, 0.61)"></circle><circle r="5" cx="1417.05" cy="48.21" fill="rgba(146, 146, 146, 0.61)"></circle><circle r="5" cx="1412.21" cy="233.39" fill="rgba(146, 146, 146, 0.61)"></circle><circle r="5" cx="1450.74" cy="338.97" fill="rgba(146, 146, 146, 0.61)"></circle><circle r="5" cx="1427.49" cy="527.03" fill="rgba(146, 146, 146, 0.61)"></circle><circle r="5" cx="1421.08" cy="853.94" fill="rgba(146, 146, 146, 0.61)"></circle><circle r="5" cx="1596.2" cy="-97.99" fill="rgba(146, 146, 146, 0.61)"></circle><circle r="5" cx="1599.71" cy="112.28" fill="rgba(146, 146, 146, 0.61)"></circle><circle r="5" cx="1580.04" cy="237.35" fill="rgba(146, 146, 146, 0.61)"></circle><circle r="5" cx="1572.35" cy="393.33" fill="rgba(146, 146, 146, 0.61)"></circle><circle r="5" cx="1593.04" cy="554.08" fill="rgba(146, 146, 146, 0.61)"></circle><circle r="5" cx="1558.97" cy="668.81" fill="rgba(146, 146, 146, 0.61)"></circle><circle r="5" cx="1591.35" cy="852.53" fill="rgba(146, 146, 146, 0.61)"></circle><path d="M397.48 830.44L397.48 830.44" stroke="hsla(256.70000000000005, 100%, 65%, 0.73)" stroke-width="1.5"></path><path d="M397.48 830.44L494.13 788.11" stroke="hsla(256.70000000000005, 100%, 65%, 0.73)" stroke-width="1.5"></path><path d="M397.48 830.44L258.78 838.18" stroke="hsla(256.70000000000005, 100%, 65%, 0.73)" stroke-width="1.5"></path><path d="M397.48 830.44L399.14 684.83" stroke="hsla(256.70000000000005, 100%, 65%, 0.73)" stroke-width="1.5"></path><path d="M397.48 830.44L532.81 640.99" stroke="hsla(256.70000000000005, 100%, 65%, 0.73)" stroke-width="1.5"></path><path d="M532.81 640.99L532.81 640.99" stroke="hsla(256.70000000000005, 100%, 65%, 0.73)" stroke-width="1.5"></path><path d="M532.81 640.99L533.73 544.1" stroke="hsla(256.70000000000005, 100%, 65%, 0.73)" stroke-width="1.5"></path><path d="M532.81 640.99L399.14 684.83" stroke="hsla(256.70000000000005, 100%, 65%, 0.73)" stroke-width="1.5"></path><path d="M532.81 640.99L494.13 788.11" stroke="hsla(256.70000000000005, 100%, 65%, 0.73)" stroke-width="1.5"></path><path d="M532.81 640.99L661.8 526.33" stroke="hsla(256.70000000000005, 100%, 65%, 0.73)" stroke-width="1.5"></path><path d="M1143.46 402.64L1143.46 402.64" stroke="hsla(256.70000000000005, 100%, 65%, 0.73)" stroke-width="1.5"></path><path d="M1143.46 402.64L1282.32 401.58" stroke="hsla(256.70000000000005, 100%, 65%, 0.73)" stroke-width="1.5"></path><path d="M1143.46 402.64L1131.57 560.47" stroke="hsla(256.70000000000005, 100%, 65%, 0.73)" stroke-width="1.5"></path><path d="M1143.46 402.64L980.68 343.76" stroke="hsla(256.70000000000005, 100%, 65%, 0.73)" stroke-width="1.5"></path><path d="M1143.46 402.64L1011.87 531.65" stroke="hsla(256.70000000000005, 100%, 65%, 0.73)" stroke-width="1.5"></path><path d="M1143.46 402.64L1269.15 262.44" stroke="hsla(256.70000000000005, 100%, 65%, 0.73)" stroke-width="1.5"></path><path d="M1428.61 406.73L1428.61 406.73" stroke="hsla(256.70000000000005, 100%, 65%, 0.73)" stroke-width="1.5"></path><path d="M1428.61 406.73L1430.53 508.89" stroke="hsla(256.70000000000005, 100%, 65%, 0.73)" stroke-width="1.5"></path><path d="M1428.61 406.73L1549.37 403.84" stroke="hsla(256.70000000000005, 100%, 65%, 0.73)" stroke-width="1.5"></path><path d="M1428.61 406.73L1282.32 401.58" stroke="hsla(256.70000000000005, 100%, 65%, 0.73)" stroke-width="1.5"></path><path d="M1444.13 653.35L1444.13 653.35" stroke="hsla(256.70000000000005, 100%, 65%, 0.73)" stroke-width="1.5"></path><path d="M1444.13 653.35L1573.58 686.04" stroke="hsla(256.70000000000005, 100%, 65%, 0.73)" stroke-width="1.5"></path><path d="M1444.13 653.35L1430.53 508.89" stroke="hsla(256.70000000000005, 100%, 65%, 0.73)" stroke-width="1.5"></path><path d="M1444.13 653.35L1448.5 812.75" stroke="hsla(256.70000000000005, 100%, 65%, 0.73)" stroke-width="1.5"></path><path d="M1549.37 403.84L1549.37 403.84" stroke="hsla(256.70000000000005, 100%, 65%, 0.73)" stroke-width="1.5"></path><path d="M1549.37 403.84L1568.49 538.74" stroke="hsla(256.70000000000005, 100%, 65%, 0.73)" stroke-width="1.5"></path><path d="M1607.93 791.55L1607.93 791.55" stroke="hsla(256.70000000000005, 100%, 65%, 0.73)" stroke-width="1.5"></path><path d="M1607.93 791.55L1573.58 686.04" stroke="hsla(256.70000000000005, 100%, 65%, 0.73)" stroke-width="1.5"></path><path d="M1607.93 791.55L1448.5 812.75" stroke="hsla(256.70000000000005, 100%, 65%, 0.73)" stroke-width="1.5"></path><path d="M1607.93 791.55L1444.13 653.35" stroke="hsla(256.70000000000005, 100%, 65%, 0.73)" stroke-width="1.5"></path><path d="M1607.93 791.55L1568.49 538.74" stroke="hsla(256.70000000000005, 100%, 65%, 0.73)" stroke-width="1.5"></path><path d="M-56.4 648.4L-56.4 648.4" stroke="hsla(256.70000000000005, 100%, 65%, 0.73)" stroke-width="1.5"></path><path d="M-56.4 648.4L71.98 700.93" stroke="hsla(256.70000000000005, 100%, 65%, 0.73)" stroke-width="1.5"></path><path d="M-56.4 648.4L-97.2 854.8" stroke="hsla(256.70000000000005, 100%, 65%, 0.73)" stroke-width="1.5"></path><path d="M-97.2 854.8L-97.2 854.8" stroke="hsla(256.70000000000005, 100%, 65%, 0.73)" stroke-width="1.5"></path><path d="M-97.2 854.8L77.57 851.7" stroke="hsla(256.70000000000005, 100%, 65%, 0.73)" stroke-width="1.5"></path><path d="M-97.2 854.8L71.98 700.93" stroke="hsla(256.70000000000005, 100%, 65%, 0.73)" stroke-width="1.5"></path><path d="M71.98 700.93L71.98 700.93" stroke="hsla(256.70000000000005, 100%, 65%, 0.73)" stroke-width="1.5"></path><path d="M71.98 700.93L77.57 851.7" stroke="hsla(256.70000000000005, 100%, 65%, 0.73)" stroke-width="1.5"></path><path d="M77.57 851.7L77.57 851.7" stroke="hsla(256.70000000000005, 100%, 65%, 0.73)" stroke-width="1.5"></path><path d="M77.57 851.7L258.78 838.18" stroke="hsla(256.70000000000005, 100%, 65%, 0.73)" stroke-width="1.5"></path><path d="M240.5 637.61L240.5 637.61" stroke="hsla(256.70000000000005, 100%, 65%, 0.73)" stroke-width="1.5"></path><path d="M240.5 637.61L366.95 550.72" stroke="hsla(256.70000000000005, 100%, 65%, 0.73)" stroke-width="1.5"></path><path d="M240.5 637.61L399.14 684.83" stroke="hsla(256.70000000000005, 100%, 65%, 0.73)" stroke-width="1.5"></path><path d="M240.5 637.61L71.98 700.93" stroke="hsla(256.70000000000005, 100%, 65%, 0.73)" stroke-width="1.5"></path><path d="M240.5 637.61L258.78 838.18" stroke="hsla(256.70000000000005, 100%, 65%, 0.73)" stroke-width="1.5"></path><path d="M240.5 637.61L397.48 830.44" stroke="hsla(256.70000000000005, 100%, 65%, 0.73)" stroke-width="1.5"></path><path d="M258.78 838.18L258.78 838.18" stroke="hsla(256.70000000000005, 100%, 65%, 0.73)" stroke-width="1.5"></path><path d="M258.78 838.18L399.14 684.83" stroke="hsla(256.70000000000005, 100%, 65%, 0.73)" stroke-width="1.5"></path><path d="M258.78 838.18L71.98 700.93" stroke="hsla(256.70000000000005, 100%, 65%, 0.73)" stroke-width="1.5"></path><path d="M366.95 550.72L366.95 550.72" stroke="hsla(256.70000000000005, 100%, 65%, 0.73)" stroke-width="1.5"></path><path d="M366.95 550.72L399.14 684.83" stroke="hsla(256.70000000000005, 100%, 65%, 0.73)" stroke-width="1.5"></path><path d="M366.95 550.72L533.73 544.1" stroke="hsla(256.70000000000005, 100%, 65%, 0.73)" stroke-width="1.5"></path><path d="M366.95 550.72L532.81 640.99" stroke="hsla(256.70000000000005, 100%, 65%, 0.73)" stroke-width="1.5"></path><path d="M399.14 684.83L399.14 684.83" stroke="hsla(256.70000000000005, 100%, 65%, 0.73)" stroke-width="1.5"></path><path d="M399.14 684.83L494.13 788.11" stroke="hsla(256.70000000000005, 100%, 65%, 0.73)" stroke-width="1.5"></path><path d="M533.73 544.1L533.73 544.1" stroke="hsla(256.70000000000005, 100%, 65%, 0.73)" stroke-width="1.5"></path><path d="M533.73 544.1L661.8 526.33" stroke="hsla(256.70000000000005, 100%, 65%, 0.73)" stroke-width="1.5"></path><path d="M533.73 544.1L399.14 684.83" stroke="hsla(256.70000000000005, 100%, 65%, 0.73)" stroke-width="1.5"></path><path d="M533.73 544.1L494.13 788.11" stroke="hsla(256.70000000000005, 100%, 65%, 0.73)" stroke-width="1.5"></path><path d="M533.73 544.1L821.1 534.44" stroke="hsla(256.70000000000005, 100%, 65%, 0.73)" stroke-width="1.5"></path><path d="M494.13 788.11L494.13 788.11" stroke="hsla(256.70000000000005, 100%, 65%, 0.73)" stroke-width="1.5"></path><path d="M494.13 788.11L705.16 854.07" stroke="hsla(256.70000000000005, 100%, 65%, 0.73)" stroke-width="1.5"></path><path d="M494.13 788.11L258.78 838.18" stroke="hsla(256.70000000000005, 100%, 65%, 0.73)" stroke-width="1.5"></path><path d="M661.8 526.33L661.8 526.33" stroke="hsla(256.70000000000005, 100%, 65%, 0.73)" stroke-width="1.5"></path><path d="M661.8 526.33L821.1 534.44" stroke="hsla(256.70000000000005, 100%, 65%, 0.73)" stroke-width="1.5"></path><path d="M661.8 526.33L830.18 405.12" stroke="hsla(256.70000000000005, 100%, 65%, 0.73)" stroke-width="1.5"></path><path d="M705.16 854.07L705.16 854.07" stroke="hsla(256.70000000000005, 100%, 65%, 0.73)" stroke-width="1.5"></path><path d="M705.16 854.07L841.78 804.59" stroke="hsla(256.70000000000005, 100%, 65%, 0.73)" stroke-width="1.5"></path><path d="M705.16 854.07L532.81 640.99" stroke="hsla(256.70000000000005, 100%, 65%, 0.73)" stroke-width="1.5"></path><path d="M705.16 854.07L996.79 829.84" stroke="hsla(256.70000000000005, 100%, 65%, 0.73)" stroke-width="1.5"></path><path d="M705.16 854.07L397.48 830.44" stroke="hsla(256.70000000000005, 100%, 65%, 0.73)" stroke-width="1.5"></path><path d="M705.16 854.07L661.8 526.33" stroke="hsla(256.70000000000005, 100%, 65%, 0.73)" stroke-width="1.5"></path><path d="M830.18 405.12L830.18 405.12" stroke="hsla(256.70000000000005, 100%, 65%, 0.73)" stroke-width="1.5"></path><path d="M830.18 405.12L821.1 534.44" stroke="hsla(256.70000000000005, 100%, 65%, 0.73)" stroke-width="1.5"></path><path d="M830.18 405.12L980.68 343.76" stroke="hsla(256.70000000000005, 100%, 65%, 0.73)" stroke-width="1.5"></path><path d="M830.18 405.12L1011.87 531.65" stroke="hsla(256.70000000000005, 100%, 65%, 0.73)" stroke-width="1.5"></path><path d="M821.1 534.44L821.1 534.44" stroke="hsla(256.70000000000005, 100%, 65%, 0.73)" stroke-width="1.5"></path><path d="M841.78 804.59L841.78 804.59" stroke="hsla(256.70000000000005, 100%, 65%, 0.73)" stroke-width="1.5"></path><path d="M841.78 804.59L996.79 829.84" stroke="hsla(256.70000000000005, 100%, 65%, 0.73)" stroke-width="1.5"></path><path d="M980.68 343.76L980.68 343.76" stroke="hsla(256.70000000000005, 100%, 65%, 0.73)" stroke-width="1.5"></path><path d="M980.68 343.76L1106.16 213.33" stroke="hsla(256.70000000000005, 100%, 65%, 0.73)" stroke-width="1.5"></path><path d="M980.68 343.76L1011.87 531.65" stroke="hsla(256.70000000000005, 100%, 65%, 0.73)" stroke-width="1.5"></path><path d="M1011.87 531.65L1011.87 531.65" stroke="hsla(256.70000000000005, 100%, 65%, 0.73)" stroke-width="1.5"></path><path d="M1011.87 531.65L1131.57 560.47" stroke="hsla(256.70000000000005, 100%, 65%, 0.73)" stroke-width="1.5"></path><path d="M1011.87 531.65L998.77 668.61" stroke="hsla(256.70000000000005, 100%, 65%, 0.73)" stroke-width="1.5"></path><path d="M1011.87 531.65L1115.37 643.6" stroke="hsla(256.70000000000005, 100%, 65%, 0.73)" stroke-width="1.5"></path><path d="M998.77 668.61L998.77 668.61" stroke="hsla(256.70000000000005, 100%, 65%, 0.73)" stroke-width="1.5"></path><path d="M998.77 668.61L1115.37 643.6" stroke="hsla(256.70000000000005, 100%, 65%, 0.73)" stroke-width="1.5"></path><path d="M998.77 668.61L996.79 829.84" stroke="hsla(256.70000000000005, 100%, 65%, 0.73)" stroke-width="1.5"></path><path d="M998.77 668.61L1131.57 560.47" stroke="hsla(256.70000000000005, 100%, 65%, 0.73)" stroke-width="1.5"></path><path d="M998.77 668.61L1136.22 789.69" stroke="hsla(256.70000000000005, 100%, 65%, 0.73)" stroke-width="1.5"></path><path d="M996.79 829.84L996.79 829.84" stroke="hsla(256.70000000000005, 100%, 65%, 0.73)" stroke-width="1.5"></path><path d="M996.79 829.84L1136.22 789.69" stroke="hsla(256.70000000000005, 100%, 65%, 0.73)" stroke-width="1.5"></path><path d="M996.79 829.84L1115.37 643.6" stroke="hsla(256.70000000000005, 100%, 65%, 0.73)" stroke-width="1.5"></path><path d="M996.79 829.84L1279.43 789.6" stroke="hsla(256.70000000000005, 100%, 65%, 0.73)" stroke-width="1.5"></path><path d="M1106.16 213.33L1106.16 213.33" stroke="hsla(256.70000000000005, 100%, 65%, 0.73)" stroke-width="1.5"></path><path d="M1106.16 213.33L1269.15 262.44" stroke="hsla(256.70000000000005, 100%, 65%, 0.73)" stroke-width="1.5"></path><path d="M1106.16 213.33L1242.4 103.15" stroke="hsla(256.70000000000005, 100%, 65%, 0.73)" stroke-width="1.5"></path><path d="M1131.57 560.47L1131.57 560.47" stroke="hsla(256.70000000000005, 100%, 65%, 0.73)" stroke-width="1.5"></path><path d="M1131.57 560.47L1115.37 643.6" stroke="hsla(256.70000000000005, 100%, 65%, 0.73)" stroke-width="1.5"></path><path d="M1115.37 643.6L1115.37 643.6" stroke="hsla(256.70000000000005, 100%, 65%, 0.73)" stroke-width="1.5"></path><path d="M1136.22 789.69L1136.22 789.69" stroke="hsla(256.70000000000005, 100%, 65%, 0.73)" stroke-width="1.5"></path><path d="M1136.22 789.69L1279.43 789.6" stroke="hsla(256.70000000000005, 100%, 65%, 0.73)" stroke-width="1.5"></path><path d="M1136.22 789.69L1115.37 643.6" stroke="hsla(256.70000000000005, 100%, 65%, 0.73)" stroke-width="1.5"></path><path d="M1136.22 789.69L1242.97 680.01" stroke="hsla(256.70000000000005, 100%, 65%, 0.73)" stroke-width="1.5"></path><path d="M1260.23 -102.89L1260.23 -102.89" stroke="hsla(256.70000000000005, 100%, 65%, 0.73)" stroke-width="1.5"></path><path d="M1260.23 -102.89L1433.27 -110.57" stroke="hsla(256.70000000000005, 100%, 65%, 0.73)" stroke-width="1.5"></path><path d="M1260.23 -102.89L1242.4 103.15" stroke="hsla(256.70000000000005, 100%, 65%, 0.73)" stroke-width="1.5"></path><path d="M1242.4 103.15L1242.4 103.15" stroke="hsla(256.70000000000005, 100%, 65%, 0.73)" stroke-width="1.5"></path><path d="M1242.4 103.15L1269.15 262.44" stroke="hsla(256.70000000000005, 100%, 65%, 0.73)" stroke-width="1.5"></path><path d="M1242.4 103.15L1410.36 75.71" stroke="hsla(256.70000000000005, 100%, 65%, 0.73)" stroke-width="1.5"></path><path d="M1242.4 103.15L1390.54 254.14" stroke="hsla(256.70000000000005, 100%, 65%, 0.73)" stroke-width="1.5"></path><path d="M1242.4 103.15L1433.27 -110.57" stroke="hsla(256.70000000000005, 100%, 65%, 0.73)" stroke-width="1.5"></path><path d="M1269.15 262.44L1269.15 262.44" stroke="hsla(256.70000000000005, 100%, 65%, 0.73)" stroke-width="1.5"></path><path d="M1269.15 262.44L1390.54 254.14" stroke="hsla(256.70000000000005, 100%, 65%, 0.73)" stroke-width="1.5"></path><path d="M1269.15 262.44L1282.32 401.58" stroke="hsla(256.70000000000005, 100%, 65%, 0.73)" stroke-width="1.5"></path><path d="M1269.15 262.44L1428.61 406.73" stroke="hsla(256.70000000000005, 100%, 65%, 0.73)" stroke-width="1.5"></path><path d="M1282.32 401.58L1282.32 401.58" stroke="hsla(256.70000000000005, 100%, 65%, 0.73)" stroke-width="1.5"></path><path d="M1282.32 401.58L1299.38 535.2" stroke="hsla(256.70000000000005, 100%, 65%, 0.73)" stroke-width="1.5"></path><path d="M1299.38 535.2L1299.38 535.2" stroke="hsla(256.70000000000005, 100%, 65%, 0.73)" stroke-width="1.5"></path><path d="M1299.38 535.2L1430.53 508.89" stroke="hsla(256.70000000000005, 100%, 65%, 0.73)" stroke-width="1.5"></path><path d="M1299.38 535.2L1242.97 680.01" stroke="hsla(256.70000000000005, 100%, 65%, 0.73)" stroke-width="1.5"></path><path d="M1299.38 535.2L1131.57 560.47" stroke="hsla(256.70000000000005, 100%, 65%, 0.73)" stroke-width="1.5"></path><path d="M1299.38 535.2L1428.61 406.73" stroke="hsla(256.70000000000005, 100%, 65%, 0.73)" stroke-width="1.5"></path><path d="M1299.38 535.2L1444.13 653.35" stroke="hsla(256.70000000000005, 100%, 65%, 0.73)" stroke-width="1.5"></path><path d="M1242.97 680.01L1242.97 680.01" stroke="hsla(256.70000000000005, 100%, 65%, 0.73)" stroke-width="1.5"></path><path d="M1242.97 680.01L1279.43 789.6" stroke="hsla(256.70000000000005, 100%, 65%, 0.73)" stroke-width="1.5"></path><path d="M1242.97 680.01L1115.37 643.6" stroke="hsla(256.70000000000005, 100%, 65%, 0.73)" stroke-width="1.5"></path><path d="M1279.43 789.6L1279.43 789.6" stroke="hsla(256.70000000000005, 100%, 65%, 0.73)" stroke-width="1.5"></path><path d="M1279.43 789.6L1448.5 812.75" stroke="hsla(256.70000000000005, 100%, 65%, 0.73)" stroke-width="1.5"></path><path d="M1279.43 789.6L1444.13 653.35" stroke="hsla(256.70000000000005, 100%, 65%, 0.73)" stroke-width="1.5"></path><path d="M1433.27 -110.57L1433.27 -110.57" stroke="hsla(256.70000000000005, 100%, 65%, 0.73)" stroke-width="1.5"></path><path d="M1433.27 -110.57L1601.07 -106.29" stroke="hsla(256.70000000000005, 100%, 65%, 0.73)" stroke-width="1.5"></path><path d="M1433.27 -110.57L1410.36 75.71" stroke="hsla(256.70000000000005, 100%, 65%, 0.73)" stroke-width="1.5"></path><path d="M1433.27 -110.57L1571.98 69.21" stroke="hsla(256.70000000000005, 100%, 65%, 0.73)" stroke-width="1.5"></path><path d="M1410.36 75.71L1410.36 75.71" stroke="hsla(256.70000000000005, 100%, 65%, 0.73)" stroke-width="1.5"></path><path d="M1410.36 75.71L1571.98 69.21" stroke="hsla(256.70000000000005, 100%, 65%, 0.73)" stroke-width="1.5"></path><path d="M1390.54 254.14L1390.54 254.14" stroke="hsla(256.70000000000005, 100%, 65%, 0.73)" stroke-width="1.5"></path><path d="M1390.54 254.14L1428.61 406.73" stroke="hsla(256.70000000000005, 100%, 65%, 0.73)" stroke-width="1.5"></path><path d="M1390.54 254.14L1568.57 247.63" stroke="hsla(256.70000000000005, 100%, 65%, 0.73)" stroke-width="1.5"></path><path d="M1430.53 508.89L1430.53 508.89" stroke="hsla(256.70000000000005, 100%, 65%, 0.73)" stroke-width="1.5"></path><path d="M1430.53 508.89L1568.49 538.74" stroke="hsla(256.70000000000005, 100%, 65%, 0.73)" stroke-width="1.5"></path><path d="M1430.53 508.89L1549.37 403.84" stroke="hsla(256.70000000000005, 100%, 65%, 0.73)" stroke-width="1.5"></path><path d="M1430.53 508.89L1282.32 401.58" stroke="hsla(256.70000000000005, 100%, 65%, 0.73)" stroke-width="1.5"></path><path d="M1448.5 812.75L1448.5 812.75" stroke="hsla(256.70000000000005, 100%, 65%, 0.73)" stroke-width="1.5"></path><path d="M1448.5 812.75L1573.58 686.04" stroke="hsla(256.70000000000005, 100%, 65%, 0.73)" stroke-width="1.5"></path><path d="M1448.5 812.75L1242.97 680.01" stroke="hsla(256.70000000000005, 100%, 65%, 0.73)" stroke-width="1.5"></path><path d="M1601.07 -106.29L1601.07 -106.29" stroke="hsla(256.70000000000005, 100%, 65%, 0.73)" stroke-width="1.5"></path><path d="M1601.07 -106.29L1571.98 69.21" stroke="hsla(256.70000000000005, 100%, 65%, 0.73)" stroke-width="1.5"></path><path d="M1601.07 -106.29L1410.36 75.71" stroke="hsla(256.70000000000005, 100%, 65%, 0.73)" stroke-width="1.5"></path><path d="M1571.98 69.21L1571.98 69.21" stroke="hsla(256.70000000000005, 100%, 65%, 0.73)" stroke-width="1.5"></path><path d="M1568.57 247.63L1568.57 247.63" stroke="hsla(256.70000000000005, 100%, 65%, 0.73)" stroke-width="1.5"></path><path d="M1568.57 247.63L1549.37 403.84" stroke="hsla(256.70000000000005, 100%, 65%, 0.73)" stroke-width="1.5"></path><path d="M1568.57 247.63L1571.98 69.21" stroke="hsla(256.70000000000005, 100%, 65%, 0.73)" stroke-width="1.5"></path><path d="M1568.57 247.63L1428.61 406.73" stroke="hsla(256.70000000000005, 100%, 65%, 0.73)" stroke-width="1.5"></path><path d="M1568.57 247.63L1410.36 75.71" stroke="hsla(256.70000000000005, 100%, 65%, 0.73)" stroke-width="1.5"></path><path d="M1568.57 247.63L1568.49 538.74" stroke="hsla(256.70000000000005, 100%, 65%, 0.73)" stroke-width="1.5"></path><path d="M1568.49 538.74L1568.49 538.74" stroke="hsla(256.70000000000005, 100%, 65%, 0.73)" stroke-width="1.5"></path><path d="M1573.58 686.04L1573.58 686.04" stroke="hsla(256.70000000000005, 100%, 65%, 0.73)" stroke-width="1.5"></path><path d="M1573.58 686.04L1568.49 538.74" stroke="hsla(256.70000000000005, 100%, 65%, 0.73)" stroke-width="1.5"></path><path d="M1573.58 686.04L1430.53 508.89" stroke="hsla(256.70000000000005, 100%, 65%, 0.73)" stroke-width="1.5"></path><circle r="25" cx="397.48" cy="830.44" fill="url(#SvgjsRadialGradient1007)"></circle><circle r="25" cx="532.81" cy="640.99" fill="url(#SvgjsRadialGradient1007)"></circle><circle r="25" cx="1143.46" cy="402.64" fill="url(#SvgjsRadialGradient1007)"></circle><circle r="25" cx="1428.61" cy="406.73" fill="url(#SvgjsRadialGradient1007)"></circle><circle r="25" cx="1444.13" cy="653.35" fill="url(#SvgjsRadialGradient1007)"></circle><circle r="25" cx="1549.37" cy="403.84" fill="url(#SvgjsRadialGradient1007)"></circle><circle r="25" cx="1607.93" cy="791.55" fill="url(#SvgjsRadialGradient1007)"></circle><circle r="5" cx="-56.4" cy="648.4" fill="rgba(188, 162, 255, 0.865)"></circle><circle r="5" cx="-97.2" cy="854.8" fill="rgba(188, 162, 255, 0.865)"></circle><circle r="5" cx="71.98" cy="700.93" fill="rgba(188, 162, 255, 0.865)"></circle><circle r="5" cx="77.57" cy="851.7" fill="rgba(188, 162, 255, 0.865)"></circle><circle r="5" cx="240.5" cy="637.61" fill="rgba(188, 162, 255, 0.865)"></circle><circle r="5" cx="258.78" cy="838.18" fill="rgba(188, 162, 255, 0.865)"></circle><circle r="5" cx="366.95" cy="550.72" fill="rgba(188, 162, 255, 0.865)"></circle><circle r="5" cx="399.14" cy="684.83" fill="rgba(188, 162, 255, 0.865)"></circle><circle r="5" cx="533.73" cy="544.1" fill="rgba(188, 162, 255, 0.865)"></circle><circle r="5" cx="494.13" cy="788.11" fill="rgba(188, 162, 255, 0.865)"></circle><circle r="5" cx="661.8" cy="526.33" fill="rgba(188, 162, 255, 0.865)"></circle><circle r="5" cx="705.16" cy="854.07" fill="rgba(188, 162, 255, 0.865)"></circle><circle r="5" cx="830.18" cy="405.12" fill="rgba(188, 162, 255, 0.865)"></circle><circle r="5" cx="821.1" cy="534.44" fill="rgba(188, 162, 255, 0.865)"></circle><circle r="5" cx="841.78" cy="804.59" fill="rgba(188, 162, 255, 0.865)"></circle><circle r="5" cx="980.68" cy="343.76" fill="rgba(188, 162, 255, 0.865)"></circle><circle r="5" cx="1011.87" cy="531.65" fill="rgba(188, 162, 255, 0.865)"></circle><circle r="5" cx="998.77" cy="668.61" fill="rgba(188, 162, 255, 0.865)"></circle><circle r="5" cx="996.79" cy="829.84" fill="rgba(188, 162, 255, 0.865)"></circle><circle r="5" cx="1106.16" cy="213.33" fill="rgba(188, 162, 255, 0.865)"></circle><circle r="5" cx="1131.57" cy="560.47" fill="rgba(188, 162, 255, 0.865)"></circle><circle r="5" cx="1115.37" cy="643.6" fill="rgba(188, 162, 255, 0.865)"></circle><circle r="5" cx="1136.22" cy="789.69" fill="rgba(188, 162, 255, 0.865)"></circle><circle r="5" cx="1260.23" cy="-102.89" fill="rgba(188, 162, 255, 0.865)"></circle><circle r="5" cx="1242.4" cy="103.15" fill="rgba(188, 162, 255, 0.865)"></circle><circle r="5" cx="1269.15" cy="262.44" fill="rgba(188, 162, 255, 0.865)"></circle><circle r="5" cx="1282.32" cy="401.58" fill="rgba(188, 162, 255, 0.865)"></circle><circle r="5" cx="1299.38" cy="535.2" fill="rgba(188, 162, 255, 0.865)"></circle><circle r="5" cx="1242.97" cy="680.01" fill="rgba(188, 162, 255, 0.865)"></circle><circle r="5" cx="1279.43" cy="789.6" fill="rgba(188, 162, 255, 0.865)"></circle><circle r="5" cx="1433.27" cy="-110.57" fill="rgba(188, 162, 255, 0.865)"></circle><circle r="5" cx="1410.36" cy="75.71" fill="rgba(188, 162, 255, 0.865)"></circle><circle r="5" cx="1390.54" cy="254.14" fill="rgba(188, 162, 255, 0.865)"></circle><circle r="5" cx="1430.53" cy="508.89" fill="rgba(188, 162, 255, 0.865)"></circle><circle r="5" cx="1448.5" cy="812.75" fill="rgba(188, 162, 255, 0.865)"></circle><circle r="5" cx="1601.07" cy="-106.29" fill="rgba(188, 162, 255, 0.865)"></circle><circle r="5" cx="1571.98" cy="69.21" fill="rgba(188, 162, 255, 0.865)"></circle><circle r="5" cx="1568.57" cy="247.63" fill="rgba(188, 162, 255, 0.865)"></circle><circle r="5" cx="1568.49" cy="538.74" fill="rgba(188, 162, 255, 0.865)"></circle><circle r="5" cx="1573.58" cy="686.04" fill="rgba(188, 162, 255, 0.865)"></circle></g><defs><mask id="SvgjsMask1006"><rect width="1440" height="692" fill="#ffffff"></rect></mask><radialGradient id="SvgjsRadialGradient1007"><stop stop-color="#ffffff" offset="0.1"></stop><stop stop-color="rgba(71, 0, 255, 0.73)" offset="0.2"></stop><stop stop-color="rgba(71, 0, 255, 0)" offset="1"></stop></radialGradient></defs></svg>